<?xml version="1.0"?>
<svg version="1.1" xmlns="http://www.w3.org/2000/svg" width="200px" height="40px" style=""><path fill="#0ee31c" d="M76.488,28.792l2.716-0.056q1.008,0,1.008,0.14q0,0.364-4.088,0.644q-2.604,5.096-2.604,6.944q0,1.288,0.812,1.288q0.308,0,0.77-0.378t0.56-0.378t0.098,0.14q-0.14,0.504-0.854,0.84t-1.204,0.336t-0.77-0.056q-0.672-0.252-0.672-1.624q0-2.828,2.156-7.196l-3.36,0.084q-3.752,3.668-7.532,6.44q-5.656,4.116-8.848,4.116q-0.196,0-0.392-0.028q-4.312-0.364-4.312-4.424q0-2.408,1.512-5.096q2.016-3.584,5.516-6.118t6.272-2.534t2.772,2.044q0,1.372-0.84,3.052t-1.708,2.128q-0.084,0.028-0.182,0.028t-0.098-0.056l0.924-1.512q0.952-1.484,0.952-2.604t-0.49-1.806t-1.554-0.686q-2.184,0-5.222,2.436t-4.62,5.992t-1.582,5.544q0,2.996,3.052,2.996q2.912,0,7.896-3.752q2.212-1.652,7.196-6.244q-0.98,0.056-1.82,0.196q-1.792,0.336-1.68-0.112q0.112-1.036,1.064-1.036q1.848,0.224,3.108,0.224q2.408-2.212,7.196-7.252q3.22-3.388,3.92-3.388q0.308,0,0.308,0.476t-0.252,1.484t-0.56,1.232q-0.644,0.448-1.204,1.218t-1.596,2.884t-1.764,3.43z M78.728,21.96l-7.168,6.72l1.652,0q0.588,0.028,1.456,0.028q0.812-1.596,4.06-6.748z M81.81276,36.24q0.924,0,2.38-0.98t2.828-2.66q0.336-0.448,0.532-0.448t0.196,0.168t-1.148,1.456q-2.8,3.08-4.676,3.08q-0.924,0-1.568-0.434t-0.644-1.344t0.476-2.114q0.812-1.904,2.604-4.788q3.276-5.32,4.648-5.32q0.28,0,0.574,0.21t0.322,0.462q-0.644,0.868-2.478,3.332t-2.534,3.542t-1.05,1.61t-0.518,0.826t-0.392,0.77q-0.476,0.952-0.476,1.792t0.924,0.84z M90.77752,29.52l2.716,0.028q1.624,0,2.324-0.084q0.028,0.028,0.028,0.084q0,0.42-2.212,0.812q-1.204,0.168-2.254,0.35t-1.344,0.182t-0.98-0.126t-0.686-0.546q0-0.28,0.238-0.476t0.406-0.196t0.336-0.028l0.728,0l0.7,0z M123.87828,28.792l2.716-0.056q1.008,0,1.008,0.14q0,0.364-4.088,0.644q-2.604,5.096-2.604,6.944q0,1.288,0.812,1.288q0.308,0,0.77-0.378t0.56-0.378t0.098,0.14q-0.14,0.504-0.854,0.84t-1.204,0.336t-0.77-0.056q-0.672-0.252-0.672-1.624q0-2.828,2.156-7.196l-3.36,0.084q-3.752,3.668-7.532,6.44q-5.656,4.116-8.848,4.116q-0.196,0-0.392-0.028q-4.312-0.364-4.312-4.424q0-2.408,1.512-5.096q2.016-3.584,5.516-6.118t6.272-2.534t2.772,2.044q0,1.372-0.84,3.052t-1.708,2.128q-0.084,0.028-0.182,0.028t-0.098-0.056l0.924-1.512q0.952-1.484,0.952-2.604t-0.49-1.806t-1.554-0.686q-2.184,0-5.222,2.436t-4.62,5.992t-1.582,5.544q0,2.996,3.052,2.996q2.912,0,7.896-3.752q2.212-1.652,7.196-6.244q-0.98,0.056-1.82,0.196q-1.792,0.336-1.68-0.112q0.112-1.036,1.064-1.036q1.848,0.224,3.108,0.224q2.408-2.212,7.196-7.252q3.22-3.388,3.92-3.388q0.308,0,0.308,0.476t-0.252,1.484t-0.56,1.232q-0.644,0.448-1.204,1.218t-1.596,2.884t-1.764,3.43z M126.11828,21.96l-7.168,6.72l1.652,0q0.588,0.028,1.456,0.028q0.812-1.596,4.06-6.748z M140.57104,36.464q-1.904,0-1.904-1.764q0-1.008,0.896-2.758t1.876-2.954q-1.736,0.84-4.004,3.038t-3.164,4.606q-0.14,0.224-0.476,0.224q-0.672,0-0.672-0.756q0.28-1.54,1.26-3.528q0.308-0.644,1.82-3.752q-2.184,1.428-3.71,3.066t-2.828,3.29t-1.47,1.652q-0.364,0-0.63-0.336t-0.266-0.672q0-0.504,1.456-3.696l-1.68,1.764q-0.616,0.616-0.77,0.616t-0.154-0.182t0.224-0.406q1.036-1.036,1.848-2.072t2.688-3.696q0.308-0.42,0.868-0.42t0.56,0.532q0,0.196-1.484,2.73t-1.652,3.178q1.148-1.26,3.444-3.388q3.444-3.192,4.536-3.192q0.336,0,0.616,0.196t0.28,0.434t-1.092,2.114q-1.064,1.932-1.176,2.296q3.108-2.604,3.108-2.632q2.632-2.044,3.78-2.044q0.336,0,0.63,0.21t0.294,0.49q0,0.056-1.82,2.366t-2.044,3.794q-0.056,0.504,0.196,0.756t0.91,0.252t1.932-0.91t2.59-2.45q0.504-0.56,0.686-0.56t0.182,0.14q0,0.196-0.252,0.448q-1.372,1.652-2.954,2.814t-2.478,1.162z M152.9658,25.642q0.378,0.266,0.378,0.63t-0.35,0.63t-0.77,0.266t-0.77-0.308t-0.35-0.7q0-0.784,1.064-0.784q0.42,0,0.798,0.266z M147.0998,37.108q-1.428,0-1.428-1.848q0-1.512,1.652-4.186t2.66-2.702q0.28,0,0.63,0.224t0.35,0.448q-0.14,0.196-0.336,0.434t-0.42,0.518t-0.616,0.798t-0.756,0.994q-2.1,2.716-2.1,3.738t0.7,1.022q0.588,0,1.596-0.644q2.352-1.456,3.724-3.192q0.504-0.644,0.686-0.644t0.182,0.224t-0.644,0.896t-1.022,1.064t-0.518,0.518t-0.518,0.476t-0.574,0.49t-0.56,0.42t-0.644,0.406t-0.644,0.294q-0.588,0.252-1.4,0.252z M158.16456,27.952q0.756,0,0.756,0.588q0,0.168-0.084,0.336q-2.52,3.5-3.024,5.292q6.524-6.524,7.924-6.524q0.14-0.028,0.252-0.028q0.784,0,0.784,0.7q0,0.14-0.056,0.28t-1.12,1.512q-1.232,1.456-2.086,2.8t-0.854,2.24t0.392,0.896q1.232,0,4.284-3.388q0.056-0.056,0.196-0.252q0.42-0.504,0.504-0.504t0.084,0.28t-0.392,0.728q-3.472,3.948-4.928,3.948q-1.372,0-1.372-1.512t1.12-3.472l1.792-2.912q-1.904,1.4-3.388,3.066t-2.702,3.234t-1.414,1.568q-0.42,0-0.658-0.35t-0.238-0.868t0.364-1.386t0.924-2.1l-1.68,1.764q-0.616,0.616-0.77,0.616t-0.154-0.182t0.224-0.406q1.036-1.036,1.792-1.988q0.728-0.952,2.996-3.64q0.252-0.336,0.532-0.336z"/><path fill="#" d=""/></svg>
